HIERARCHY
ROOT Hips
{
 OFFSET 0.000000 0.000000 0.000000
 CHANNELS 6 Xposition Yposition Zposition Yrotation Xrotation Zrotation
 JOINT Chest
 {
  OFFSET 0.000000 9.585900 0.002600
  CHANNELS 3 Yrotation Xrotation Zrotation
  JOINT Chest2
  {
   OFFSET 0.000000 9.601200 -0.005300
   CHANNELS 3 Yrotation Xrotation Zrotation
   JOINT Chest3
   {
    OFFSET 0.000000 9.561800 0.000000
    CHANNELS 3 Yrotation Xrotation Zrotation
    JOINT Chest4
    {
     OFFSET 0.000000 9.552100 0.000000
     CHANNELS 3 Yrotation Xrotation Zrotation
     JOINT Neck
     {
      OFFSET 0.000000 14.453000 0.000000
      CHANNELS 3 Yrotation Xrotation Zrotation
      JOINT Head
      {
       OFFSET 0.000000 8.936500 -0.011300
       CHANNELS 3 Yrotation Xrotation Zrotation
       End Site
       {
        OFFSET 0.000000 17.073600 -0.006000
       }
      }
     }
     JOINT RightCollar
     {
      OFFSET -2.921100 9.558500 0.000000
      CHANNELS 3 Yrotation Xrotation Zrotation
      JOINT RightShoulder
      {
       OFFSET -13.519700 0.000000 0.000000
       CHANNELS 3 Yrotation Xrotation Zrotation
       JOINT RightElbow
       {
        OFFSET 0.000000 -29.696600 0.000000
        CHANNELS 3 Yrotation Xrotation Zrotation
        JOINT RightWrist
        {
         OFFSET 0.000000 -24.004700 0.000000
         CHANNELS 3 Yrotation Xrotation Zrotation
         End Site
         {
          OFFSET 0.000000 -17.728500 0.000000
         }
        }
       }
      }
     }
     JOINT LeftCollar
     {
      OFFSET 2.921100 9.558500 0.000000
      CHANNELS 3 Yrotation Xrotation Zrotation
      JOINT LeftShoulder
      {
       OFFSET 13.519700 0.000000 0.000000
       CHANNELS 3 Yrotation Xrotation Zrotation
       JOINT LeftElbow
       {
        OFFSET 0.000000 -29.696600 0.000000
        CHANNELS 3 Yrotation Xrotation Zrotation
        JOINT LeftWrist
        {
         OFFSET 0.000000 -24.004700 0.000000
         CHANNELS 3 Yrotation Xrotation Zrotation
         End Site
         {
          OFFSET 0.000000 -17.728500 0.000000
         }
        }
       }
      }
     }
    }
   }
  }
 }
 JOINT RightHip
 {
  OFFSET -7.771700 -0.012900 -0.001300
  CHANNELS 3 Yrotation Xrotation Zrotation
  JOINT RightKnee
  {
   OFFSET 0.000000 -40.869800 0.001200
   CHANNELS 3 Yrotation Xrotation Zrotation
   JOINT RightAnkle
   {
    OFFSET 0.000000 -39.717900 0.002100
    CHANNELS 3 Yrotation Xrotation Zrotation
    JOINT RightToe
    {
     OFFSET 0.000000 -4.965400 11.033500
     CHANNELS 3 Yrotation Xrotation Zrotation
     End Site
     {
      OFFSET 0.000000 -1.423100 5.872300
     }
    }
   }
  }
 }
 JOINT LeftHip
 {
  OFFSET 7.771700 -0.012900 -0.001300
  CHANNELS 3 Yrotation Xrotation Zrotation
  JOINT LeftKnee
  {
   OFFSET 0.000000 -40.869800 0.001200
   CHANNELS 3 Yrotation Xrotation Zrotation
   JOINT LeftAnkle
   {
    OFFSET 0.000000 -39.717900 0.002100
    CHANNELS 3 Yrotation Xrotation Zrotation
    JOINT LeftToe
    {
     OFFSET 0.000000 -4.965400 11.033500
     CHANNELS 3 Yrotation Xrotation Zrotation
     End Site
     {
      OFFSET 0.000000 -1.423100 5.872300
     }
    }
   }
  }
 }
}
MOTION
Frames: 8
Frame Time: 0.008333
0.000000 85.388000 0.000000 0.000000 -5.767877 0.000000 0.000000 11.653817 0.000000 0.000000 -5.885947 0.000000 0.000000 -0.000000 0.000000 0.000000 -0.000000 0.000000 0.000000 12.528835 0.000000 0.000000 0.711642 0.000000 0.000000 -0.000000 0.000000 0.000000 0.000000 -90.000000 0.000000 -2.309062 0.000000 0.000000 2.309062 0.000000 0.000000 -0.000000 0.000000 0.000000 -0.000000 90.000000 0.000000 -2.309062 0.000000 0.000000 2.309062 0.000000 0.000000 8.520406 0.000000 0.000000 1.905762 0.000000 -0.000000 -4.658285 0.000000 0.000000 -0.000000 0.000000 0.000000 8.520406 0.000000 0.000000 1.905762 0.000000 -0.000000 -4.658285 0.000000 0.000000 -0.000000 0.000000
-28.227947 62.131794 12.163548 177.705678 -49.534063 -0.906421 4.474014 26.432969 0.625915 0.686877 4.495503 0.046460 1.063844 7.036014 0.114921 3.442313 21.558068 0.784974 0.552837 21.608127 -3.140245 1.827452 4.245882 -5.875195 5.303516 11.263158 6.397245 -9.116056 -11.808726 -14.416327 -52.489164 -20.249260 100.958804 -9.124608 -0.449834 26.029361 -8.472509 10.122027 1.369363 8.826996 -5.550641 9.362867 67.462105 -37.511807 -101.127189 22.547774 -1.679365 -29.102783 2.458189 -17.304104 -6.748598 -1.361797 61.691333 -5.034936 1.650351 -8.291247 10.518078 0.177482 -0.538301 0.077295 -3.975960 -14.597743 1.964173 24.249181 77.074745 24.490077 0.807480 -11.913759 -3.042239 0.175615 0.507046 0.085340
-28.221836 62.129782 12.152956 177.705707 -49.542443 -0.926341 4.500882 26.478531 0.646878 0.694655 4.524068 0.047571 1.061242 7.032644 0.111856 3.447647 21.576486 0.781553 0.532953 21.518598 -3.147024 1.781149 4.093433 -5.894222 5.311394 11.190371 6.416086 -9.148404 -11.838518 -14.395557 -52.481201 -20.273849 100.865195 -9.147024 -0.425743 25.947280 -8.515126 10.018326 1.361270 8.810702 -5.570689 9.381585 67.458380 -37.541401 -101.055720 22.459176 -1.608981 -29.015343 2.455222 -17.308219 -6.723340 -1.377141 61.718439 -5.053237 1.669367 -8.267971 10.525885 0.166774 -0.562515 0.070845 -3.969579 -14.591118 2.003819 24.247870 77.110135 24.482412 0.796496 -11.945163 -3.029378 0.172834 0.520778 0.082591
-28.219785 62.124127 12.143822 177.727282 -49.524171 -0.936695 4.501523 26.507231 0.640797 0.697802 4.534819 0.052591 1.061836 7.048448 0.106837 3.469226 21.662989 0.783212 0.477054 21.371346 -3.179250 1.736786 3.939579 -5.905772 5.331562 11.067529 6.434715 -9.213546 -11.903121 -14.363787 -52.447213 -20.283878 100.779668 -9.158613 -0.407530 25.855017 -8.558118 9.844232 1.377451 8.802331 -5.580972 9.397348 67.441031 -37.629399 -100.996970 22.455167 -1.555196 -28.942393 2.444719 -17.332669 -6.728651 -1.380415 61.741189 -5.059400 1.674282 -8.274747 10.529158 0.162545 -0.554809 0.069421 -3.978115 -14.613159 2.007491 24.265390 77.129053 24.497067 0.792263 -11.969782 -3.023084 0.174242 0.535913 0.079945
-28.217688 62.118520 12.134108 177.741785 -49.506378 -0.940681 4.529560 26.583864 0.652692 0.680428 4.496173 0.051702 1.063852 7.066486 0.103680 3.474827 21.697297 0.787157 0.434129 21.277476 -3.201336 1.677795 3.807440 -5.940862 5.314985 10.964354 6.431705 -9.220318 -11.974522 -14.279944 -52.378984 -20.299675 100.626176 -9.152618 -0.405211 25.826896 -8.606218 9.696222 1.361372 8.802606 -5.573999 9.428470 67.417713 -37.696582 -100.939921 22.459580 -1.506037 -28.861998 2.439368 -17.354151 -6.736010 -1.381062 61.760848 -5.060719 1.676731 -8.290015 10.530965 0.159721 -0.537386 0.067821 -3.981223 -14.634398 2.008920 24.286755 77.146602 24.515937 0.794914 -11.989792 -3.019468 0.171780 0.547071 0.078918
-28.212848 62.112368 12.125349 177.759614 -49.482217 -0.963669 4.539791 26.604243 0.671588 0.680480 4.503327 0.052384 1.067824 7.082851 0.103832 3.468838 21.704879 0.791492 0.391818 21.221006 -3.235278 1.626923 3.691146 -5.976627 5.335923 10.900401 6.423838 -9.251459 -12.006686 -14.250732 -52.351347 -20.301140 100.572069 -9.156098 -0.389741 25.706316 -8.642364 9.533633 1.329233 8.722933 -5.610534 9.451869 67.368355 -37.734949 -100.767774 22.469190 -1.470022 -28.770206 2.428748 -17.384318 -6.722774 -1.394943 61.778744 -5.073605 1.682791 -8.290246 10.528758 0.158520 -0.531692 0.069150 -3.984356 -14.659724 2.044705 24.213874 77.169851 24.442512 0.767182 -12.016669 -3.018036 0.196942 0.562936 0.089872
-28.210671 62.107734 12.116160 177.775509 -49.467059 -0.969860 4.537068 26.632790 0.671656 0.680127 4.508710 0.053275 1.076696 7.097574 0.103646 3.456964 21.708252 0.797915 0.360076 21.171125 -3.263793 1.592936 3.612574 -6.006958 5.393056 10.837415 6.400576 -9.310928 -12.030887 -14.205738 -52.307985 -20.303016 100.520746 -9.145622 -0.383642 25.607376 -8.659744 9.394647 1.307510 8.647548 -5.624371 9.461754 67.338576 -37.759873 -100.652395 22.463086 -1.437245 -28.672869 2.431409 -17.406888 -6.727855 -1.407193 61.803406 -5.083822 1.691272 -8.286986 10.530510 0.151876 -0.534859 0.069695 -3.991212 -14.676997 2.048130 24.215227 77.183179 24.444027 0.758049 -12.029646 -3.018553 0.201656 0.566344 0.091758
-28.210552 62.104295 12.107362 177.797680 -49.457476 -0.969883 4.519820 26.663917 0.659817 0.677685 4.492741 0.050416 1.081028 7.131155 0.106375 3.448650 21.682641 0.795760 0.336422 21.155417 -3.286533 1.557448 3.536072 -6.052910 5.426662 10.801643 6.381653 -9.256452 -12.106864 -14.090489 -52.315801 -20.335662 100.357506 -9.122963 -0.346203 25.551055 -8.670385 9.298486 1.286766 8.575115 -5.621823 9.467598 67.319460 -37.788684 -100.576605 22.444389 -1.417957 -28.576638 2.427466 -17.419112 -6.739110 -1.378358 61.827386 -5.069375 1.673971 -8.302165 10.541019 0.147766 -0.523020 0.067329 -4.001772 -14.689346 2.037065 24.222320 77.193046 24.450994 0.746833 -12.035655 -3.021002 0.207685 0.569250 0.094512
